<mxfile host="app.diagrams.net" modified="2022-05-31T11:47:37.025Z" agent="5.0 (Macintosh; Intel Mac OS X 10_15_7) AppleWebKit/605.1.15 (KHTML, like Gecko) Version/15.5 Safari/605.1.15" etag="ODTrXoqHbcHT-a9erxFl" version="18.1.3" type="github">
  <diagram id="xpUdMpeRmWtxAvWL6Qza" name="Page-1">
    <mxGraphModel dx="786" dy="419" grid="1" gridSize="10" guides="1" tooltips="1" connect="1" arrows="1" fold="1" page="1" pageScale="1" pageWidth="827" pageHeight="1169" math="0" shadow="0">
      <root>
        <mxCell id="0" />
        <mxCell id="1" parent="0" />
        <mxCell id="Ci88IGGnT4IwaRnlCl02-13" style="edgeStyle=orthogonalEdgeStyle;rounded=0;orthogonalLoop=1;jettySize=auto;html=1;exitX=0;exitY=0.25;exitDx=0;exitDy=0;entryX=0.75;entryY=1;entryDx=0;entryDy=0;" parent="1" source="Ci88IGGnT4IwaRnlCl02-2" target="Ci88IGGnT4IwaRnlCl02-7" edge="1">
          <mxGeometry relative="1" as="geometry" />
        </mxCell>
        <mxCell id="Ci88IGGnT4IwaRnlCl02-15" value="global&lt;br&gt;state" style="edgeLabel;html=1;align=center;verticalAlign=middle;resizable=0;points=[];" parent="Ci88IGGnT4IwaRnlCl02-13" vertex="1" connectable="0">
          <mxGeometry x="0.1579" relative="1" as="geometry">
            <mxPoint as="offset" />
          </mxGeometry>
        </mxCell>
        <mxCell id="Ci88IGGnT4IwaRnlCl02-2" value="Core" style="rounded=0;whiteSpace=wrap;html=1;" parent="1" vertex="1">
          <mxGeometry x="220" y="260" width="120" height="60" as="geometry" />
        </mxCell>
        <mxCell id="Ci88IGGnT4IwaRnlCl02-10" style="edgeStyle=orthogonalEdgeStyle;rounded=0;orthogonalLoop=1;jettySize=auto;html=1;exitX=0.25;exitY=1;exitDx=0;exitDy=0;entryX=0.25;entryY=0;entryDx=0;entryDy=0;" parent="1" source="Ci88IGGnT4IwaRnlCl02-2" target="Ci88IGGnT4IwaRnlCl02-3" edge="1">
          <mxGeometry relative="1" as="geometry" />
        </mxCell>
        <mxCell id="Ci88IGGnT4IwaRnlCl02-12" value="global&lt;br&gt;event" style="edgeLabel;html=1;align=center;verticalAlign=middle;resizable=0;points=[];" parent="Ci88IGGnT4IwaRnlCl02-10" vertex="1" connectable="0">
          <mxGeometry x="-0.0667" y="-1" relative="1" as="geometry">
            <mxPoint as="offset" />
          </mxGeometry>
        </mxCell>
        <mxCell id="Ci88IGGnT4IwaRnlCl02-3" value="State Machine" style="rounded=0;whiteSpace=wrap;html=1;" parent="1" vertex="1">
          <mxGeometry x="220" y="410" width="120" height="60" as="geometry" />
        </mxCell>
        <mxCell id="Ci88IGGnT4IwaRnlCl02-4" style="edgeStyle=orthogonalEdgeStyle;rounded=0;orthogonalLoop=1;jettySize=auto;html=1;exitX=0.5;exitY=1;exitDx=0;exitDy=0;" parent="1" source="Ci88IGGnT4IwaRnlCl02-3" target="Ci88IGGnT4IwaRnlCl02-3" edge="1">
          <mxGeometry relative="1" as="geometry" />
        </mxCell>
        <mxCell id="Ci88IGGnT4IwaRnlCl02-16" style="edgeStyle=orthogonalEdgeStyle;rounded=0;orthogonalLoop=1;jettySize=auto;html=1;exitX=0.75;exitY=0;exitDx=0;exitDy=0;entryX=0.75;entryY=1;entryDx=0;entryDy=0;" parent="1" source="Ci88IGGnT4IwaRnlCl02-7" target="Ci88IGGnT4IwaRnlCl02-8" edge="1">
          <mxGeometry relative="1" as="geometry" />
        </mxCell>
        <mxCell id="Ci88IGGnT4IwaRnlCl02-17" value="layer&lt;br&gt;state" style="edgeLabel;html=1;align=center;verticalAlign=middle;resizable=0;points=[];" parent="Ci88IGGnT4IwaRnlCl02-16" vertex="1" connectable="0">
          <mxGeometry x="-0.1333" relative="1" as="geometry">
            <mxPoint as="offset" />
          </mxGeometry>
        </mxCell>
        <mxCell id="Ci88IGGnT4IwaRnlCl02-20" style="edgeStyle=orthogonalEdgeStyle;rounded=0;orthogonalLoop=1;jettySize=auto;html=1;exitX=0.25;exitY=1;exitDx=0;exitDy=0;entryX=0;entryY=0.75;entryDx=0;entryDy=0;" parent="1" source="Ci88IGGnT4IwaRnlCl02-7" target="Ci88IGGnT4IwaRnlCl02-2" edge="1">
          <mxGeometry relative="1" as="geometry" />
        </mxCell>
        <mxCell id="Ci88IGGnT4IwaRnlCl02-21" value="global&lt;br&gt;event" style="edgeLabel;html=1;align=center;verticalAlign=middle;resizable=0;points=[];" parent="Ci88IGGnT4IwaRnlCl02-20" vertex="1" connectable="0">
          <mxGeometry x="-0.5784" y="-1" relative="1" as="geometry">
            <mxPoint as="offset" />
          </mxGeometry>
        </mxCell>
        <mxCell id="Ci88IGGnT4IwaRnlCl02-7" value="Layer Mappers" style="rounded=0;whiteSpace=wrap;html=1;" parent="1" vertex="1">
          <mxGeometry x="110" y="140" width="120" height="60" as="geometry" />
        </mxCell>
        <mxCell id="Ci88IGGnT4IwaRnlCl02-18" style="edgeStyle=orthogonalEdgeStyle;rounded=0;orthogonalLoop=1;jettySize=auto;html=1;exitX=0.25;exitY=1;exitDx=0;exitDy=0;entryX=0.25;entryY=0;entryDx=0;entryDy=0;" parent="1" source="Ci88IGGnT4IwaRnlCl02-8" target="Ci88IGGnT4IwaRnlCl02-7" edge="1">
          <mxGeometry relative="1" as="geometry" />
        </mxCell>
        <mxCell id="Ci88IGGnT4IwaRnlCl02-19" value="layer&lt;br&gt;event" style="edgeLabel;html=1;align=center;verticalAlign=middle;resizable=0;points=[];" parent="Ci88IGGnT4IwaRnlCl02-18" vertex="1" connectable="0">
          <mxGeometry x="0.0333" y="1" relative="1" as="geometry">
            <mxPoint as="offset" />
          </mxGeometry>
        </mxCell>
        <mxCell id="Ci88IGGnT4IwaRnlCl02-8" value="Layer Machine" style="rounded=0;whiteSpace=wrap;html=1;" parent="1" vertex="1">
          <mxGeometry x="110" y="20" width="120" height="60" as="geometry" />
        </mxCell>
        <mxCell id="Ci88IGGnT4IwaRnlCl02-23" style="edgeStyle=orthogonalEdgeStyle;rounded=0;orthogonalLoop=1;jettySize=auto;html=1;exitX=0.75;exitY=0;exitDx=0;exitDy=0;entryX=0.25;entryY=0;entryDx=0;entryDy=0;" parent="1" source="Ci88IGGnT4IwaRnlCl02-3" edge="1">
          <mxGeometry relative="1" as="geometry">
            <mxPoint x="310" y="380" as="sourcePoint" />
            <mxPoint x="310" y="320" as="targetPoint" />
          </mxGeometry>
        </mxCell>
        <mxCell id="Ci88IGGnT4IwaRnlCl02-24" value="global&lt;br&gt;state" style="edgeLabel;html=1;align=center;verticalAlign=middle;resizable=0;points=[];" parent="Ci88IGGnT4IwaRnlCl02-23" vertex="1" connectable="0">
          <mxGeometry x="-0.0667" y="-1" relative="1" as="geometry">
            <mxPoint as="offset" />
          </mxGeometry>
        </mxCell>
        <mxCell id="Ci88IGGnT4IwaRnlCl02-25" style="edgeStyle=orthogonalEdgeStyle;rounded=0;orthogonalLoop=1;jettySize=auto;html=1;exitX=0.25;exitY=1;exitDx=0;exitDy=0;entryX=0.75;entryY=1;entryDx=0;entryDy=0;" parent="1" source="Ci88IGGnT4IwaRnlCl02-3" target="Ci88IGGnT4IwaRnlCl02-3" edge="1">
          <mxGeometry relative="1" as="geometry">
            <Array as="points">
              <mxPoint x="250" y="530" />
              <mxPoint x="310" y="530" />
            </Array>
          </mxGeometry>
        </mxCell>
        <mxCell id="Ci88IGGnT4IwaRnlCl02-26" value="global&lt;br&gt;state" style="edgeLabel;html=1;align=center;verticalAlign=middle;resizable=0;points=[];" parent="Ci88IGGnT4IwaRnlCl02-25" vertex="1" connectable="0">
          <mxGeometry x="0.0111" y="1" relative="1" as="geometry">
            <mxPoint as="offset" />
          </mxGeometry>
        </mxCell>
        <mxCell id="Ci88IGGnT4IwaRnlCl02-33" value="Layer Mappers" style="rounded=0;whiteSpace=wrap;html=1;" parent="1" vertex="1">
          <mxGeometry x="330" y="140" width="120" height="60" as="geometry" />
        </mxCell>
        <mxCell id="Ci88IGGnT4IwaRnlCl02-35" value="Layer Machine" style="rounded=0;whiteSpace=wrap;html=1;" parent="1" vertex="1">
          <mxGeometry x="330" y="20" width="120" height="60" as="geometry" />
        </mxCell>
        <mxCell id="Ci88IGGnT4IwaRnlCl02-38" style="edgeStyle=orthogonalEdgeStyle;rounded=0;orthogonalLoop=1;jettySize=auto;html=1;exitX=0.25;exitY=0;exitDx=0;exitDy=0;entryX=0.25;entryY=1;entryDx=0;entryDy=0;" parent="1" source="Ci88IGGnT4IwaRnlCl02-33" target="Ci88IGGnT4IwaRnlCl02-35" edge="1">
          <mxGeometry relative="1" as="geometry">
            <mxPoint x="380" y="140" as="sourcePoint" />
            <mxPoint x="380" y="80" as="targetPoint" />
          </mxGeometry>
        </mxCell>
        <mxCell id="Ci88IGGnT4IwaRnlCl02-39" value="layer&lt;br&gt;state" style="edgeLabel;html=1;align=center;verticalAlign=middle;resizable=0;points=[];" parent="Ci88IGGnT4IwaRnlCl02-38" vertex="1" connectable="0">
          <mxGeometry x="-0.1333" relative="1" as="geometry">
            <mxPoint as="offset" />
          </mxGeometry>
        </mxCell>
        <mxCell id="Ci88IGGnT4IwaRnlCl02-40" style="edgeStyle=orthogonalEdgeStyle;rounded=0;orthogonalLoop=1;jettySize=auto;html=1;exitX=0.75;exitY=1;exitDx=0;exitDy=0;entryX=0.75;entryY=0;entryDx=0;entryDy=0;" parent="1" source="Ci88IGGnT4IwaRnlCl02-35" target="Ci88IGGnT4IwaRnlCl02-33" edge="1">
          <mxGeometry relative="1" as="geometry">
            <mxPoint x="450" y="80.00000000000006" as="sourcePoint" />
            <mxPoint x="450" y="140" as="targetPoint" />
          </mxGeometry>
        </mxCell>
        <mxCell id="Ci88IGGnT4IwaRnlCl02-41" value="layer&lt;br&gt;event" style="edgeLabel;html=1;align=center;verticalAlign=middle;resizable=0;points=[];" parent="Ci88IGGnT4IwaRnlCl02-40" vertex="1" connectable="0">
          <mxGeometry x="0.0333" y="1" relative="1" as="geometry">
            <mxPoint as="offset" />
          </mxGeometry>
        </mxCell>
        <mxCell id="Ci88IGGnT4IwaRnlCl02-44" style="edgeStyle=orthogonalEdgeStyle;rounded=0;orthogonalLoop=1;jettySize=auto;html=1;exitX=1;exitY=0.25;exitDx=0;exitDy=0;entryX=0.25;entryY=1;entryDx=0;entryDy=0;" parent="1" source="Ci88IGGnT4IwaRnlCl02-2" target="Ci88IGGnT4IwaRnlCl02-33" edge="1">
          <mxGeometry relative="1" as="geometry">
            <mxPoint x="400" y="275" as="sourcePoint" />
            <mxPoint x="380" y="220" as="targetPoint" />
          </mxGeometry>
        </mxCell>
        <mxCell id="Ci88IGGnT4IwaRnlCl02-45" value="global&lt;br&gt;state" style="edgeLabel;html=1;align=center;verticalAlign=middle;resizable=0;points=[];" parent="Ci88IGGnT4IwaRnlCl02-44" vertex="1" connectable="0">
          <mxGeometry x="0.1579" relative="1" as="geometry">
            <mxPoint as="offset" />
          </mxGeometry>
        </mxCell>
        <mxCell id="Ci88IGGnT4IwaRnlCl02-46" style="edgeStyle=orthogonalEdgeStyle;rounded=0;orthogonalLoop=1;jettySize=auto;html=1;exitX=0.75;exitY=1;exitDx=0;exitDy=0;entryX=1;entryY=0.75;entryDx=0;entryDy=0;" parent="1" source="Ci88IGGnT4IwaRnlCl02-33" target="Ci88IGGnT4IwaRnlCl02-2" edge="1">
          <mxGeometry relative="1" as="geometry">
            <mxPoint x="374" y="220" as="sourcePoint" />
            <mxPoint x="454" y="325" as="targetPoint" />
          </mxGeometry>
        </mxCell>
        <mxCell id="Ci88IGGnT4IwaRnlCl02-47" value="global&lt;br&gt;event" style="edgeLabel;html=1;align=center;verticalAlign=middle;resizable=0;points=[];" parent="Ci88IGGnT4IwaRnlCl02-46" vertex="1" connectable="0">
          <mxGeometry x="-0.5784" y="-1" relative="1" as="geometry">
            <mxPoint as="offset" />
          </mxGeometry>
        </mxCell>
      </root>
    </mxGraphModel>
  </diagram>
</mxfile>
